#Comment line ignore any data following # character 
#Hierarchical Translation and Rotation (.htr) file 
[Header]	
#Header keywords are followed by a single value 
FileType HTR		#Single word string
DataType HTRS		#Translation followed by rotation and scale data
FileVersion 1		#integer
NumSegments 84		#integer
NumFrames 2		#integer
DataFrameRate 30		#integer, data frame rate in this file
EulerRotationOrder ZYX
CalibrationUnits mm
RotationUnits Degrees
GlobalAxisofGravity Y
BoneLengthAxis Y
ScaleFactor 1.00
[SegmentNames&Hierarchy]
#CHILD	PARENT
MASTER GLOBAL
root MASTER
chest root
L_mid_tent01 root
R_mid_tent01 root
spine01 root
Bip01_Neck chest
L_humerus chest
R_humerus chest
weapon_bone chest
Bip01_Head Bip01_Neck
eye_left_bone Bip01_Head
eye_right_bone Bip01_Head
L_forearm L_humerus
L_front_hand L_forearm
L_weapon_bone L_forearm
L_front_hand01_01 L_front_hand
L_front_hand02_01 L_front_hand
L_front_hand03_01 L_front_hand
L_front_hand01_02 L_front_hand01_01
L_front_hand02_02 L_front_hand02_01
L_front_hand03_02 L_front_hand03_01
R_forearm R_humerus
R_front_hand R_forearm
R_weapon_bone R_forearm
R_front_hand01_01 R_front_hand
R_front_hand02_01 R_front_hand
R_front_hand03_01 R_front_hand
R_front_hand01_02 R_front_hand01_01
R_front_hand02_02 R_front_hand02_01
R_front_hand03_02 R_front_hand03_01
null_rope01_connect L_mid_tent01
Rope1_Seg01 null_rope01_connect
Rope1_Seg02 Rope1_Seg01
Rope1_Seg03 Rope1_Seg02
Rope1_Seg04 Rope1_Seg03
Rope1_Seg05 Rope1_Seg04
Rope1_Seg06 Rope1_Seg05
Rope1_Seg07 Rope1_Seg06
Rope1_Seg09 Rope1_Seg07
L_mid_hand01 Rope1_Seg09
L_mid_hand02 Rope1_Seg09
L_mid_hand03 Rope1_Seg09
null_rope02_connect R_mid_tent01
Rope2_Seg01 null_rope02_connect
Rope2_Seg02 Rope2_Seg01
Rope2_Seg03 Rope2_Seg02
Rope2_Seg04 Rope2_Seg03
Rope2_Seg05 Rope2_Seg04
Rope2_Seg06 Rope2_Seg05
Rope2_Seg07 Rope2_Seg06
Rope2_Seg09 Rope2_Seg07
R_mid_hand01 Rope2_Seg09
R_mid_hand02 Rope2_Seg09
R_mid_hand03 Rope2_Seg09
spine02 spine01
spine03 spine02
pelvis spine03
null_rope03_connect pelvis
null_rope04_connect pelvis
Rope3_Seg01 null_rope03_connect
Rope3_Seg02 Rope3_Seg01
Rope3_Seg03 Rope3_Seg02
Rope3_Seg04 Rope3_Seg03
Rope3_Seg05 Rope3_Seg04
Rope3_Seg06 Rope3_Seg05
Rope3_Seg07 Rope3_Seg06
Rope3_Seg08 Rope3_Seg07
Rope3_Seg09 Rope3_Seg08
R_rear_hand01 Rope3_Seg09
R_rear_hand02 Rope3_Seg09
R_rear_hand03 Rope3_Seg09
Rope4_Seg01 null_rope04_connect
Rope4_Seg02 Rope4_Seg01
Rope4_Seg03 Rope4_Seg02
Rope4_Seg04 Rope4_Seg03
Rope4_Seg05 Rope4_Seg04
Rope4_Seg06 Rope4_Seg05
Rope4_Seg07 Rope4_Seg06
Rope4_Seg08 Rope4_Seg07
Rope4_Seg09 Rope4_Seg08
L_rear_hand01 Rope4_Seg09
L_rear_hand02 Rope4_Seg09
L_rear_hand03 Rope4_Seg09
[BasePosition]
#SegmentName Tx, Ty, Tz, Rx, Ry, Rz, BoneLength
MASTER 0.000000 0.000000 0.000000 -90.000000 0.000000 0.000000 10.000000 
root 0.000000 0.000000 0.000000 0.000000 0.000000 0.000000 10.000000 
chest 0.000000 0.000000 0.000000 0.000000 0.000000 0.000000 10.000000 
L_mid_tent01 0.000000 0.000000 0.000000 0.000000 0.000000 0.000000 10.000000 
R_mid_tent01 0.000000 0.000000 0.000000 0.000000 0.000000 0.000000 10.000000 
spine01 0.000000 0.000000 0.000000 0.000000 0.000000 0.000000 10.000000 
Bip01_Neck 0.000000 0.000000 0.000000 0.000000 0.000000 0.000000 10.000000 
L_humerus 0.000000 0.000000 0.000000 0.000000 0.000000 0.000000 10.000000 
R_humerus 0.000000 0.000000 0.000000 0.000000 0.000000 0.000000 10.000000 
weapon_bone 0.000000 0.000000 0.000000 0.000000 0.000000 0.000000 10.000000 
Bip01_Head 0.000000 0.000000 0.000000 0.000000 0.000000 0.000000 10.000000 
eye_left_bone 0.000000 0.000000 0.000000 0.000000 0.000000 0.000000 10.000000 
eye_right_bone 0.000000 0.000000 0.000000 0.000000 0.000000 0.000000 10.000000 
L_forearm 0.000000 0.000000 0.000000 0.000000 0.000000 0.000000 10.000000 
L_front_hand 0.000000 0.000000 0.000000 0.000000 0.000000 0.000000 10.000000 
L_weapon_bone 0.000000 0.000000 0.000000 0.000000 0.000000 0.000000 10.000000 
L_front_hand01_01 0.000000 0.000000 0.000000 0.000000 0.000000 0.000000 10.000000 
L_front_hand02_01 0.000000 0.000000 0.000000 0.000000 0.000000 0.000000 10.000000 
L_front_hand03_01 0.000000 0.000000 0.000000 0.000000 0.000000 0.000000 10.000000 
L_front_hand01_02 0.000000 0.000000 0.000000 0.000000 0.000000 0.000000 10.000000 
L_front_hand02_02 0.000000 0.000000 0.000000 0.000000 0.000000 0.000000 10.000000 
L_front_hand03_02 0.000000 0.000000 0.000000 0.000000 0.000000 0.000000 10.000000 
R_forearm 0.000000 0.000000 0.000000 0.000000 0.000000 0.000000 10.000000 
R_front_hand 0.000000 0.000000 0.000000 0.000000 0.000000 0.000000 10.000000 
R_weapon_bone 0.000000 0.000000 0.000000 0.000000 0.000000 0.000000 10.000000 
R_front_hand01_01 0.000000 0.000000 0.000000 0.000000 0.000000 0.000000 10.000000 
R_front_hand02_01 0.000000 0.000000 0.000000 0.000000 0.000000 0.000000 10.000000 
R_front_hand03_01 0.000000 0.000000 0.000000 0.000000 0.000000 0.000000 10.000000 
R_front_hand01_02 0.000000 0.000000 0.000000 0.000000 0.000000 0.000000 10.000000 
R_front_hand02_02 0.000000 0.000000 0.000000 0.000000 0.000000 0.000000 10.000000 
R_front_hand03_02 0.000000 0.000000 0.000000 0.000000 0.000000 0.000000 10.000000 
null_rope01_connect 0.000000 0.000000 0.000000 0.000000 0.000000 0.000000 10.000000 
Rope1_Seg01 0.000000 0.000000 0.000000 0.000000 0.000000 0.000000 10.000000 
Rope1_Seg02 0.000000 0.000000 0.000000 0.000000 0.000000 0.000000 10.000000 
Rope1_Seg03 0.000000 0.000000 0.000000 0.000000 0.000000 0.000000 10.000000 
Rope1_Seg04 0.000000 0.000000 0.000000 0.000000 0.000000 0.000000 10.000000 
Rope1_Seg05 0.000000 0.000000 0.000000 0.000000 0.000000 0.000000 10.000000 
Rope1_Seg06 0.000000 0.000000 0.000000 0.000000 0.000000 0.000000 10.000000 
Rope1_Seg07 0.000000 0.000000 0.000000 0.000000 0.000000 0.000000 10.000000 
Rope1_Seg09 0.000000 0.000000 0.000000 0.000000 0.000000 0.000000 10.000000 
L_mid_hand01 0.000000 0.000000 0.000000 0.000000 0.000000 0.000000 10.000000 
L_mid_hand02 0.000000 0.000000 0.000000 0.000000 0.000000 0.000000 10.000000 
L_mid_hand03 0.000000 0.000000 0.000000 0.000000 0.000000 0.000000 10.000000 
null_rope02_connect 0.000000 0.000000 0.000000 0.000000 0.000000 0.000000 10.000000 
Rope2_Seg01 0.000000 0.000000 0.000000 0.000000 0.000000 0.000000 10.000000 
Rope2_Seg02 0.000000 0.000000 0.000000 0.000000 0.000000 0.000000 10.000000 
Rope2_Seg03 0.000000 0.000000 0.000000 0.000000 0.000000 0.000000 10.000000 
Rope2_Seg04 0.000000 0.000000 0.000000 0.000000 0.000000 0.000000 10.000000 
Rope2_Seg05 0.000000 0.000000 0.000000 0.000000 0.000000 0.000000 10.000000 
Rope2_Seg06 0.000000 0.000000 0.000000 0.000000 0.000000 0.000000 10.000000 
Rope2_Seg07 0.000000 0.000000 0.000000 0.000000 0.000000 0.000000 10.000000 
Rope2_Seg09 0.000000 0.000000 0.000000 0.000000 0.000000 0.000000 10.000000 
R_mid_hand01 0.000000 0.000000 0.000000 0.000000 0.000000 0.000000 10.000000 
R_mid_hand02 0.000000 0.000000 0.000000 0.000000 0.000000 0.000000 10.000000 
R_mid_hand03 0.000000 0.000000 0.000000 0.000000 0.000000 0.000000 10.000000 
spine02 0.000000 0.000000 0.000000 0.000000 0.000000 0.000000 10.000000 
spine03 0.000000 0.000000 0.000000 0.000000 0.000000 0.000000 10.000000 
pelvis 0.000000 0.000000 0.000000 0.000000 0.000000 0.000000 10.000000 
null_rope03_connect 0.000000 0.000000 0.000000 0.000000 0.000000 0.000000 10.000000 
null_rope04_connect 0.000000 0.000000 0.000000 0.000000 0.000000 0.000000 10.000000 
Rope3_Seg01 0.000000 0.000000 0.000000 0.000000 0.000000 0.000000 10.000000 
Rope3_Seg02 0.000000 0.000000 0.000000 0.000000 0.000000 0.000000 10.000000 
Rope3_Seg03 0.000000 0.000000 0.000000 0.000000 0.000000 0.000000 10.000000 
Rope3_Seg04 0.000000 0.000000 0.000000 0.000000 0.000000 0.000000 10.000000 
Rope3_Seg05 0.000000 0.000000 0.000000 0.000000 0.000000 0.000000 10.000000 
Rope3_Seg06 0.000000 0.000000 0.000000 0.000000 0.000000 0.000000 10.000000 
Rope3_Seg07 0.000000 0.000000 0.000000 0.000000 0.000000 0.000000 10.000000 
Rope3_Seg08 0.000000 0.000000 0.000000 0.000000 0.000000 0.000000 10.000000 
Rope3_Seg09 0.000000 0.000000 0.000000 0.000000 0.000000 0.000000 10.000000 
R_rear_hand01 0.000000 0.000000 0.000000 0.000000 0.000000 0.000000 10.000000 
R_rear_hand02 0.000000 0.000000 0.000000 0.000000 0.000000 0.000000 10.000000 
R_rear_hand03 0.000000 0.000000 0.000000 0.000000 0.000000 0.000000 10.000000 
Rope4_Seg01 0.000000 0.000000 0.000000 0.000000 0.000000 0.000000 10.000000 
Rope4_Seg02 0.000000 0.000000 0.000000 0.000000 0.000000 0.000000 10.000000 
Rope4_Seg03 0.000000 0.000000 0.000000 0.000000 0.000000 0.000000 10.000000 
Rope4_Seg04 0.000000 0.000000 0.000000 0.000000 0.000000 0.000000 10.000000 
Rope4_Seg05 0.000000 0.000000 0.000000 0.000000 0.000000 0.000000 10.000000 
Rope4_Seg06 0.000000 0.000000 0.000000 0.000000 0.000000 0.000000 10.000000 
Rope4_Seg07 0.000000 0.000000 0.000000 0.000000 0.000000 0.000000 10.000000 
Rope4_Seg08 0.000000 0.000000 0.000000 0.000000 0.000000 0.000000 10.000000 
Rope4_Seg09 0.000000 0.000000 0.000000 0.000000 0.000000 0.000000 10.000000 
L_rear_hand01 0.000000 0.000000 0.000000 0.000000 0.000000 0.000000 10.000000 
L_rear_hand02 0.000000 0.000000 0.000000 0.000000 0.000000 0.000000 10.000000 
L_rear_hand03 0.000000 0.000000 0.000000 0.000000 0.000000 0.000000 10.000000 
#Beginning of Data. Separated by tabs
#Fr	Tx	Ty	Tz	Rx	Ry	Rz	SF
[MASTER]
17 2451.104980 -0.000370 0.000000 0.002347 0.000000 89.997704 2451.104736
18 2542.723389 -0.000384 0.000000 0.002347 0.000000 89.997704 2542.723389
[root]
17 -62.822105 16.502380 1102.171509 -47.921494 -28.693409 -164.273682 1104.083740
18 -62.822109 16.502380 1144.160645 -64.793602 -28.638611 -162.281662 1146.002808
[chest]
17 -84.512650 -34.090519 0.000000 33.917469 -0.216083 -168.122757 91.129311
18 -84.512650 -34.090519 0.000000 17.985920 1.238177 -169.818100 91.129311
[L_mid_tent01]
17 27.460051 22.085588 -250.949615 -29.656883 4.514482 19.780836 253.411804
18 27.437115 22.098732 -250.802277 -29.180187 6.160440 21.582850 253.264542
[R_mid_tent01]
17 23.228794 24.509907 226.238495 -137.003235 -6.542137 7.495724 228.744751
18 23.228794 24.509907 226.238495 -136.024536 -1.268569 6.663013 228.744751
[spine01]
17 -0.361383 -0.195265 0.000000 37.141651 1.770748 -2.174264 0.410763
18 -0.361383 -0.195265 0.000000 38.164318 1.587963 -1.453488 0.410763
[Bip01_Neck]
17 165.484543 71.581718 0.000119 175.896118 1.177290 24.871183 180.302734
18 165.484543 71.581718 0.000119 175.896118 1.177290 24.871183 180.302734
[L_humerus]
17 -13.983130 -135.272980 -120.471481 170.940796 81.564224 -99.189163 181.680161
18 -13.983130 -135.272980 -120.471481 170.940796 81.564224 -99.189163 181.680161
[R_humerus]
17 -13.983309 -135.273102 125.287651 -159.666046 -68.957870 -101.166077 184.909012
18 -13.983309 -135.273102 125.287651 -159.666046 -68.957870 -101.166077 184.909012
[weapon_bone]
17 235.964890 -300.705902 0.000000 0.000000 -89.951546 -128.212341 382.234833
18 235.964890 -300.705902 0.000000 0.000000 -89.951546 -128.212341 382.234833
[Bip01_Head]
17 261.355743 108.959496 -2.864116 2.248029 5.843378 -62.458351 283.173462
18 261.355743 108.959503 -2.864111 2.248029 5.843377 -62.458344 283.173462
[eye_left_bone]
17 -24.626970 125.451866 -64.772606 0.000000 -90.000000 -99.840431 143.318359
18 -24.626970 125.451866 -64.772606 0.000000 -90.000000 -99.840431 143.318359
[eye_right_bone]
17 -24.626970 125.451866 64.327362 0.000000 -89.960434 80.159386 143.117676
18 -24.626970 125.451866 64.327362 0.000000 -89.960434 80.159386 143.117676
[L_forearm]
17 322.776093 0.000000 -0.000119 0.000471 0.002300 -66.859398 322.776093
18 322.776093 0.000000 -0.000119 0.000471 0.002300 -66.859383 322.776093
[L_front_hand]
17 241.149185 -0.042021 -3.300071 -178.667953 -1.835447 -27.422350 241.171753
18 241.149185 -0.042021 -3.300071 -178.667953 -1.835447 -27.422350 241.171753
[L_weapon_bone]
17 156.183838 0.000000 0.000000 0.001660 0.001660 0.001660 156.183838
18 156.183838 0.000000 0.000000 0.001660 0.001660 0.001660 156.183838
[L_front_hand01_01]
17 86.095154 20.947098 -0.655860 0.211241 -0.560884 17.357290 88.609184
18 86.095154 20.947098 -0.655860 0.171154 -0.573704 21.180222 88.609184
[L_front_hand02_01]
17 86.935165 -11.437475 24.513514 118.065666 -15.915234 -8.667751 91.046425
18 86.935165 -11.437475 24.513514 118.645042 -19.279860 -10.569485 91.046425
[L_front_hand03_01]
17 86.637497 -14.123976 -20.424902 -119.358360 14.637108 -10.761033 90.126129
18 86.637497 -14.123976 -20.424902 -119.911827 17.962019 -12.727839 90.126129
[L_front_hand01_02]
17 71.020905 -0.000179 0.000030 0.000922 0.002159 -43.760223 71.020905
18 71.020905 -0.000179 0.000030 0.000837 0.002193 -48.241432 71.020905
[L_front_hand02_02]
17 71.020927 -0.000119 0.000060 0.000922 0.002159 -43.760223 71.020927
18 71.020927 -0.000119 0.000060 0.000837 0.002193 -48.241432 71.020927
[L_front_hand03_02]
17 71.020905 -0.000060 0.000060 0.000922 0.002159 -43.760223 71.020905
18 71.020905 -0.000060 0.000060 0.000837 0.002193 -48.241432 71.020905
[R_forearm]
17 322.776428 -0.000060 0.000030 0.199694 -0.075621 -69.903069 322.776428
18 322.776428 -0.000060 0.000030 0.199694 -0.075621 -69.903069 322.776428
[R_front_hand]
17 238.847015 -0.006795 2.210259 -1.531694 0.790216 -51.443054 238.857239
18 238.847015 -0.006795 2.210259 -1.531694 0.790216 -51.443062 238.857239
[R_weapon_bone]
17 155.664093 0.002503 -0.000030 0.003487 0.001180 -90.988930 155.664078
18 155.664093 0.002503 -0.000030 0.003487 0.001180 -90.988930 155.664078
[R_front_hand01_01]
17 87.624611 14.231146 22.918642 -118.091415 -16.042309 8.845704 91.683487
18 87.624611 14.231146 22.918642 -118.669006 -19.407516 10.750248 91.683487
[R_front_hand02_01]
17 89.356956 14.367283 -19.491137 119.433098 15.033600 11.237807 92.579636
18 89.356956 14.367283 -19.491137 120.003609 18.355684 13.212110 92.579636
[R_front_hand03_01]
17 87.286232 -22.307278 -0.143439 -0.272309 -0.361186 -17.744339 90.091743
18 87.286232 -22.307278 -0.143439 -0.248554 -0.377927 -21.564304 90.091743
[R_front_hand01_02]
17 71.020905 0.000060 0.000119 0.002159 0.000922 43.758469 71.020905
18 71.020905 0.000060 0.000119 0.002193 0.000837 48.239647 71.020905
[R_front_hand02_02]
17 71.020844 -0.000030 -0.000119 0.002159 0.000922 43.758469 71.020836
18 71.020844 -0.000030 -0.000119 0.002193 0.000837 48.239647 71.020836
[R_front_hand03_02]
17 71.020905 0.000000 0.000030 0.002159 0.000922 43.758469 71.020905
18 71.020905 0.000000 0.000030 0.002193 0.000837 48.239647 71.020905
[null_rope01_connect]
17 328.732483 0.000000 -0.000238 72.566162 -61.808773 26.208740 328.732483
18 328.732483 0.000000 -0.000238 107.167778 -68.731979 -9.559198 328.732483
[Rope1_Seg01]
17 0.000000 0.000000 0.000000 94.880791 67.468079 -68.138321 0.000000
18 0.000000 0.000000 0.000000 64.773163 66.345276 -101.882553 0.000000
[Rope1_Seg02]
17 139.999863 -0.000179 0.000000 5.394903 -3.320187 -20.490410 139.999863
18 139.999863 -0.000179 0.000000 4.273320 -5.237965 -23.885273 139.999863
[Rope1_Seg03]
17 139.999924 0.000060 -0.000060 16.203339 -6.862978 -28.117712 139.999924
18 139.999924 0.000060 -0.000060 13.055113 -7.890609 -28.378487 139.999924
[Rope1_Seg04]
17 139.999924 -0.000060 -0.000119 18.001547 -10.162988 -18.878519 139.999924
18 139.999924 -0.000060 -0.000119 11.817327 -8.113995 -16.046761 139.999924
[Rope1_Seg05]
17 139.999832 0.000119 -0.000060 10.463106 -8.196079 -8.623060 139.999832
18 139.999832 0.000119 -0.000060 8.744420 -6.770181 -9.723602 139.999832
[Rope1_Seg06]
17 139.999954 0.000119 -0.000060 9.652939 -9.059339 -7.066127 139.999954
18 139.999954 0.000119 -0.000060 9.560874 -8.132384 -9.150407 139.999954
[Rope1_Seg07]
17 139.999985 0.000060 0.000000 7.106614 -8.483056 -4.531701 139.999985
18 139.999985 0.000060 0.000000 6.835896 -7.137606 -5.629337 139.999985
[Rope1_Seg09]
17 121.602913 0.000119 -0.000089 -89.793175 -1.359789 0.847147 121.602913
18 121.602913 0.000119 -0.000089 -89.793175 -1.359789 0.847147 121.602913
[L_mid_hand01]
17 103.859421 1.038730 8.195221 104.645828 -11.341451 -3.472799 104.187431
18 103.859421 1.038730 8.195221 104.791466 -13.822902 -4.141279 104.187431
[L_mid_hand02]
17 105.572853 -4.139662 -10.864139 -136.851318 12.264257 -12.172828 106.211075
18 105.572853 -4.139662 -10.864139 -137.292099 14.014200 -14.102406 106.211075
[L_mid_hand03]
17 104.641464 17.579376 -3.913581 -18.441504 3.536872 14.376384 106.179977
18 104.641464 17.579376 -3.913581 -18.272455 4.345789 16.819996 106.179977
[null_rope02_connect]
17 328.732849 0.000179 -0.000119 -151.482391 -2.991229 -66.274292 328.732849
18 328.732849 0.000179 -0.000119 -150.525787 12.758831 -69.265465 328.732849
[Rope2_Seg01]
17 -0.000052 0.000134 0.000153 50.806255 4.781344 -30.404478 0.000209
18 -0.000050 0.000134 0.000153 22.973404 14.999088 -43.308590 0.000209
[Rope2_Seg02]
17 139.999741 -0.000060 -0.000119 5.432449 20.879238 -3.443146 139.999756
18 139.999741 -0.000060 -0.000119 11.042944 18.968445 3.544565 139.999756
[Rope2_Seg03]
17 140.000107 0.000030 0.000000 0.040932 27.574160 -8.398263 140.000107
18 140.000107 0.000030 0.000000 4.821296 27.587528 -0.495964 140.000107
[Rope2_Seg04]
17 139.999802 0.000000 -0.000060 -0.974924 19.871881 -6.544252 139.999802
18 139.999802 0.000000 -0.000060 -0.100354 21.641544 -2.404359 139.999802
[Rope2_Seg05]
17 139.999985 -0.000060 0.000119 -1.665089 17.459978 -4.298231 139.999985
18 139.999985 -0.000060 0.000119 -2.387862 19.102188 -0.400154 139.999985
[Rope2_Seg06]
17 139.999893 -0.000030 -0.000119 -2.699578 14.990614 -3.158046 139.999893
18 139.999893 -0.000030 -0.000119 -5.051766 16.518255 0.763646 139.999893
[Rope2_Seg07]
17 139.999893 0.000060 -0.000060 -2.301778 8.675166 -1.591796 139.999893
18 139.999893 0.000060 -0.000060 -4.582749 9.005915 1.020857 139.999893
[Rope2_Seg09]
17 121.338966 0.000089 -0.000060 33.793236 -1.359788 -0.847141 121.338966
18 121.338966 0.000089 -0.000060 33.793236 -1.359788 -0.847141 121.338966
[R_mid_hand01]
17 104.680779 11.144459 -10.335981 -46.201900 12.323607 14.293468 105.778534
18 104.680779 11.144459 -10.335981 -45.829594 13.966291 15.923307 105.778534
[R_mid_hand02]
17 104.070427 2.443552 8.231699 75.146904 -14.653768 4.372539 104.424065
18 104.070427 2.443552 8.231699 74.979683 -16.862888 4.983314 104.424065
[R_mid_hand03]
17 106.028137 -11.221827 -5.996406 -165.285202 5.858132 -18.535969 106.788818
18 106.028137 -11.221827 -5.996406 -165.527451 6.433964 -20.763390 106.788818
[spine02]
17 129.756927 0.001550 0.000119 -0.245322 -4.052059 -4.355546 129.756927
18 129.756927 0.001550 0.000119 -0.245322 -4.052060 -4.355547 129.756927
[spine03]
17 78.613739 0.087225 -4.899114 0.369659 4.260734 -4.885720 78.766289
18 78.613739 0.087231 -4.899134 0.369658 4.260732 -4.885719 78.766289
[pelvis]
17 169.435242 0.051022 0.000000 -0.010033 -0.192936 -1.867117 169.435257
18 169.435242 0.051022 0.000000 -0.010027 -0.192556 -1.874726 169.435257
[null_rope03_connect]
17 -1.257226 -2.466202 137.391083 30.231766 -2.523486 90.155121 137.418976
18 -1.257226 -2.466202 137.391083 34.354805 -16.869242 87.132851 137.418976
[null_rope04_connect]
17 -1.259640 -2.480268 -137.844437 30.231766 -2.523486 90.155121 137.872513
18 -1.259640 -2.480268 -137.844437 34.354805 -16.869242 87.132851 137.872513
[Rope3_Seg01]
17 0.000000 0.000000 0.000000 115.953964 -53.524242 -163.135071 0.000000
18 0.000000 0.000000 0.000000 124.160614 -67.704910 -168.504547 0.000000
[Rope3_Seg02]
17 139.999924 -0.000119 0.000060 13.652381 -8.603085 9.323373 139.999924
18 139.999924 -0.000119 0.000060 7.633737 -7.233713 10.416519 139.999924
[Rope3_Seg03]
17 139.999924 -0.000119 0.000119 15.566225 -12.624690 24.313702 139.999924
18 139.999924 -0.000119 0.000119 7.974627 -11.804793 24.725683 139.999924
[Rope3_Seg04]
17 139.999924 0.000119 0.000000 5.479154 -5.193654 33.128620 139.999924
18 139.999924 0.000119 0.000000 -0.086271 -8.087300 32.706726 139.999924
[Rope3_Seg05]
17 139.999924 -0.000238 0.000060 -2.282766 -2.220901 27.469278 139.999924
18 139.999924 -0.000238 0.000060 -7.486592 -7.368809 26.447313 139.999924
[Rope3_Seg06]
17 139.999893 -0.000119 -0.000060 -5.951748 -2.642210 18.898098 139.999893
18 139.999893 -0.000119 -0.000060 -9.867043 -7.806984 17.569975 139.999893
[Rope3_Seg07]
17 139.999771 0.000060 -0.000119 -3.782146 -1.866219 8.176586 139.999771
18 139.999771 0.000060 -0.000119 -5.103500 -4.483928 7.226356 139.999771
[Rope3_Seg08]
17 139.999985 -0.000060 0.000000 -1.998732 -1.166261 3.980151 139.999985
18 139.999985 -0.000060 0.000000 -2.462663 -2.499335 3.380917 139.999985
[Rope3_Seg09]
17 90.185997 -0.000179 -0.000060 89.793228 -1.359877 -0.847183 90.185997
18 90.185997 -0.000179 -0.000060 89.793228 -1.359877 -0.847183 90.185997
[R_rear_hand01]
17 103.366196 -6.073594 -10.757982 -156.890808 8.867678 -9.260687 104.101845
18 103.366196 -6.073594 -10.757982 -157.358185 10.054737 -12.115294 104.101845
[R_rear_hand02]
17 100.509819 12.039542 -7.992327 -38.311344 6.310308 10.942962 101.543350
18 100.509819 12.039542 -7.992327 -38.001770 8.202547 13.368593 101.543350
[R_rear_hand03]
17 101.539970 5.215704 5.435467 84.240326 -9.319661 4.797911 101.819031
18 101.539970 5.215704 5.435467 84.177414 -12.362664 5.114734 101.819031
[Rope4_Seg01]
17 0.000000 0.000000 0.000000 -100.330078 -6.164835 -108.902115 0.000000
18 0.000000 0.000000 0.000000 -99.052612 -13.317330 -112.284767 0.000000
[Rope4_Seg02]
17 139.999985 0.000060 0.000119 3.482963 25.570301 11.686604 139.999985
18 139.999985 0.000060 0.000119 4.185798 26.578991 4.983303 139.999985
[Rope4_Seg03]
17 139.999924 0.000000 -0.000238 63.592545 48.704506 33.600498 139.999924
18 139.999924 0.000000 -0.000238 76.180817 55.000053 15.031664 139.999924
[Rope4_Seg04]
17 139.999985 0.000000 0.000119 121.546074 21.080021 -11.127558 139.999985
18 139.999985 0.000000 0.000119 57.181789 11.408274 -21.942514 139.999985
[Rope4_Seg05]
17 139.999802 -0.000060 -0.000119 -10.499061 -11.968879 1.265137 139.999802
18 139.999802 -0.000060 -0.000119 -0.009721 -10.577828 -4.975760 139.999802
[Rope4_Seg06]
17 139.999924 0.000000 0.000060 -5.210789 -9.301958 0.311631 139.999924
18 139.999924 0.000000 0.000060 -0.981758 -8.554866 -2.836549 139.999924
[Rope4_Seg07]
17 139.999802 0.000000 0.000000 -0.837934 -5.094786 -1.381945 139.999802
18 139.999802 0.000000 0.000000 0.577300 -4.428268 -2.723304 139.999802
[Rope4_Seg08]
17 139.999924 0.000000 0.000119 -1.929334 -3.055586 -0.877136 139.999924
18 139.999924 0.000000 0.000119 -1.246874 -2.682323 -1.616668 139.999924
[Rope4_Seg09]
17 90.185791 0.000060 0.000060 -135.617828 2.228885 0.850567 90.185791
18 90.185791 0.000060 0.000060 -135.617828 2.228885 0.850567 90.185791
[L_rear_hand01]
17 101.696655 -8.392275 -7.654577 -38.541737 -4.340775 171.553604 102.329041
18 101.696655 -8.392275 -7.654577 -38.308769 -6.335740 169.028763 102.329041
[L_rear_hand02]
17 102.726799 -1.568258 5.773216 84.278557 6.160368 175.519302 102.900848
18 102.726799 -1.568258 5.773216 84.234558 9.357846 175.196030 102.900848
[L_rear_hand03]
17 104.552910 9.721220 -10.420293 -156.464783 -7.606923 -173.684799 105.519653
18 104.552910 9.721220 -10.420293 -156.893646 -8.879512 -170.705887 105.519653
